<?xml version="1.0" standalone="no"?>
<!DOCTYPE svg PUBLIC "-//W3C//DTD SVG 20010904//EN"
 "http://www.w3.org/TR/2001/REC-SVG-20010904/DTD/svg10.dtd">
<svg fill="#FFD700" version="1.0" xmlns="http://www.w3.org/2000/svg"
 width="300.000000pt" height="125.000000pt" viewBox="0 0 1000.000000 1000.000000"
 preserveAspectRatio="xMidYMid meet">

<g transform="translate(0.000000,1000.000000) scale(0.100000,-0.100000)"
stroke="none">
<path d="M4802 6550 c-334 -42 -646 -191 -904 -430 l-86 -80 -755 0 c-489 0
-783 -4 -834 -11 -153 -21 -402 -118 -483 -189 l-35 -30 36 -33 c45 -40 167
-101 275 -138 173 -59 176 -59 874 -59 510 0 641 -3 636 -12 -23 -56 -67 -208
-77 -264 -7 -38 -13 -70 -14 -72 -1 -1 -573 -2 -1271 -2 -737 0 -1307 -4
-1359 -10 -153 -16 -347 -81 -476 -159 -84 -51 -92 -65 -54 -97 72 -58 244
-132 410 -177 80 -21 87 -21 1414 -24 l1335 -3 18 -88 c9 -48 28 -120 42 -159
l25 -73 -626 0 c-591 0 -630 -1 -726 -21 -153 -31 -350 -113 -428 -179 l-34
-28 24 -26 c31 -33 173 -106 283 -144 175 -62 175 -62 1018 -62 l768 0 27 -35
c42 -56 191 -182 297 -252 171 -112 356 -189 568 -234 90 -20 134 -23 305 -23
169 0 216 4 305 23 217 46 397 121 575 238 100 67 249 194 290 248 l27 35 768
0 c843 0 843 0 1018 62 108 37 251 110 282 143 l23 25 -23 25 c-29 31 -200
116 -301 149 -160 53 -201 56 -870 56 l-618 0 25 73 c14 39 33 113 43 162 l18
90 1319 2 c967 1 1338 5 1389 14 171 29 475 166 475 214 0 30 -147 112 -295
164 -194 69 -83 64 -1556 68 l-1335 4 -12 69 c-10 56 -55 210 -78 268 -5 9
126 12 636 12 542 0 653 2 716 16 158 32 361 117 432 181 l37 33 -35 30 c-81
71 -330 168 -483 189 -51 7 -346 11 -836 11 l-757 0 -35 36 c-62 65 -193 171
-282 229 -165 107 -348 181 -554 225 -113 24 -382 35 -501 20z m368 -355 c144
-22 233 -50 365 -114 834 -407 922 -1554 160 -2080 -491 -340 -1147 -280
-1570 144 -171 171 -280 374 -332 617 -24 114 -24 352 0 466 52 246 160 446
337 622 271 273 664 403 1040 345z"/>
<path d="M4895 5739 c-87 -11 -210 -53 -285 -96 -80 -47 -223 -188 -269 -266
-18 -31 -47 -96 -64 -144 -30 -84 -32 -95 -32 -238 1 -138 3 -156 28 -230 42
-119 99 -209 191 -300 93 -91 164 -137 277 -176 400 -142 835 70 976 476 25
74 27 92 27 230 0 138 -2 156 -27 230 -40 115 -99 209 -186 296 -125 124 -273
197 -445 219 -89 11 -104 11 -191 -1z"/>
</g>
</svg>
