<?xml version="1.0" standalone="no"?>
<!DOCTYPE svg PUBLIC "-//W3C//DTD SVG 20010904//EN"
 "http://www.w3.org/TR/2001/REC-SVG-20010904/DTD/svg10.dtd">
<svg version="1.0" xmlns="http://www.w3.org/2000/svg"
 width="348.000000pt" height="348.000000pt" viewBox="0 0 348.000000 348.000000"
 preserveAspectRatio="xMidYMid meet">

<g transform="translate(0.000000,348.000000) scale(0.100000,-0.100000)"
fill="#FFD700" stroke="none">
<path d="M1854 3421 c-34 -16 -99 -62 -145 -103 -137 -121 -143 -124 -284
-120 -106 2 -127 0 -179 -20 -60 -24 -76 -38 -225 -191 -73 -75 -92 -90 -139
-103 -63 -19 -121 -13 -140 13 -19 26 -10 129 17 180 11 23 17 44 13 47 -14 9
-123 -52 -179 -101 -104 -88 -153 -195 -153 -335 0 -37 7 -88 16 -113 14 -44
14 -48 -10 -109 -38 -93 -37 -167 2 -248 16 -35 50 -87 76 -116 l46 -53 -15
-36 c-19 -46 -51 -168 -70 -270 -35 -190 -37 -416 -4 -554 8 -38 7 -56 -5 -93
-46 -136 14 -271 149 -332 36 -17 61 -37 79 -65 45 -68 166 -188 254 -252 55
-39 95 -78 118 -113 97 -145 304 -265 486 -281 181 -16 440 77 608 216 31 25
95 89 143 141 47 52 116 124 152 158 36 35 92 98 124 140 76 100 86 108 146
117 80 11 166 58 226 123 66 72 93 139 93 237 1 86 -22 154 -76 236 -47 69
-50 48 32 199 58 106 114 243 142 347 35 132 33 290 -5 397 -27 77 -96 197
-143 246 -32 35 -54 92 -54 142 0 58 -34 150 -86 230 -38 59 -52 72 -111 102
-69 34 -175 69 -248 81 -79 12 -106 28 -211 120 -187 163 -307 200 -440 136z
m290 -91 c26 -12 81 -55 124 -95 84 -78 164 -127 251 -151 158 -43 256 -108
293 -194 11 -25 39 -100 63 -167 24 -67 64 -161 89 -208 77 -147 99 -223 99
-345 -1 -65 -7 -130 -17 -170 -18 -67 -102 -289 -116 -303 -4 -5 -17 11 -28
35 -30 62 -142 198 -218 265 -35 31 -64 59 -64 63 0 3 19 14 42 24 58 26 115
81 145 140 22 42 25 59 20 109 -6 70 -39 118 -108 157 -42 24 -54 25 -238 30
l-193 5 -30 35 c-16 19 -51 67 -78 105 -54 80 -117 141 -155 151 -45 11 -98
-7 -235 -80 -74 -40 -150 -77 -168 -84 -42 -14 -103 3 -186 55 -100 62 -168
47 -294 -66 -212 -188 -350 -251 -455 -207 -50 21 -114 91 -132 145 -20 60
-21 191 -1 254 15 49 66 136 92 158 13 10 14 7 8 -29 -5 -31 -1 -51 15 -85 30
-61 72 -81 160 -75 108 8 150 33 286 173 66 68 131 129 145 136 55 28 102 28
174 3 81 -28 151 -31 186 -7 14 9 70 60 126 114 135 130 156 141 266 136 63
-3 99 -10 132 -27z m-709 -680 c91 -62 114 -71 181 -71 43 -1 75 9 177 55 191
86 223 80 368 -67 105 -107 87 -99 284 -115 131 -11 192 -31 237 -77 75 -75
22 -177 -132 -255 -33 -17 -60 -34 -60 -39 0 -13 24 -36 75 -71 63 -43 175
-170 256 -288 l70 -103 -29 -47 c-27 -45 -42 -54 -104 -67 -16 -3 -28 -10 -28
-15 0 -5 27 -23 61 -41 143 -76 205 -227 145 -354 -23 -51 -82 -112 -133 -138
-27 -14 -138 -49 -195 -61 -18 -4 -38 -23 -59 -54 -97 -142 -229 -270 -394
-381 -122 -82 -165 -118 -165 -138 0 -17 44 -17 106 1 l49 15 -28 -22 c-57
-48 -142 -91 -240 -125 -93 -33 -112 -36 -217 -36 -139 -1 -228 23 -304 81
-52 40 -74 72 -40 59 35 -14 197 -26 248 -19 l51 6 -83 19 c-164 36 -391 135
-508 221 -91 67 -187 160 -244 237 -35 47 -58 69 -78 73 -40 8 -93 47 -115 85
-26 45 -33 143 -15 212 13 47 13 67 2 130 -45 255 26 637 175 946 58 119 60
122 112 149 99 49 193 119 294 216 103 100 144 128 183 129 13 0 56 -23 97
-50z m-846 -253 c25 -18 58 -38 73 -45 l28 -11 -45 -90 c-25 -49 -45 -94 -45
-100 0 -22 -16 -10 -47 37 -36 54 -57 123 -48 161 8 35 26 81 32 81 3 0 26
-15 52 -33z"/>
<path d="M1400 2234 c-6 -14 -10 -52 -10 -85 l0 -59 -87 0 c-162 -1 -488 -13
-513 -20 -14 -3 -26 -14 -28 -23 -5 -23 36 -37 110 -37 58 0 60 -1 53 -22 -18
-51 -17 -156 1 -193 32 -68 95 -70 129 -5 20 38 22 138 5 180 -7 17 -10 33 -8
36 3 2 86 3 186 2 l180 -3 -52 -90 c-60 -105 -135 -222 -183 -284 -18 -24 -33
-49 -33 -56 0 -14 133 -239 158 -268 19 -21 61 -19 75 5 8 12 5 28 -15 66 -22
42 -82 137 -113 179 -7 9 -7 17 0 26 35 46 170 257 214 335 l53 92 164 0 c90
0 164 -2 164 -4 0 -2 -7 -20 -15 -39 -29 -69 -13 -171 32 -207 33 -26 49 -25
78 4 45 45 54 149 20 229 -6 15 0 17 70 17 42 0 85 5 96 10 26 14 24 39 -3 49
-24 8 -351 21 -564 21 l-120 0 4 58 c6 89 -25 146 -48 86z"/>
<path d="M2477 1903 c-21 -20 5 -56 135 -189 78 -79 147 -144 154 -144 32 0
-37 120 -122 211 -56 61 -135 129 -149 129 -6 0 -15 -3 -18 -7z"/>
<path d="M2430 1736 c0 -22 141 -198 172 -215 15 -9 30 -13 33 -9 17 17 -17
71 -93 150 -81 84 -112 105 -112 74z"/>
<path d="M2397 1603 c-16 -15 -4 -42 38 -86 53 -56 85 -62 85 -17 0 53 -94
132 -123 103z"/>
<path d="M2340 1452 c0 -23 45 -66 59 -57 17 10 13 40 -7 58 -25 23 -52 22
-52 -1z"/>
<path d="M970 1261 c-79 -9 -156 -47 -210 -102 -45 -47 -80 -113 -80 -153 0
-46 33 -28 82 43 49 73 117 125 175 134 52 9 814 9 865 0 59 -9 127 -61 176
-134 26 -37 52 -65 64 -67 19 -3 20 0 15 38 -11 84 -100 181 -207 225 -41 17
-80 19 -430 21 -212 1 -414 -1 -450 -5z"/>
<path d="M1243 1094 c-19 -8 -15 -32 7 -44 32 -17 207 -25 225 -10 38 31 5 45
-125 53 -52 4 -101 4 -107 1z"/>
</g>
</svg>
