<?xml version="1.0" standalone="no"?>
<!DOCTYPE svg PUBLIC "-//W3C//DTD SVG 20010904//EN"
 "http://www.w3.org/TR/2001/REC-SVG-20010904/DTD/svg10.dtd">
<svg version="1.0" xmlns="http://www.w3.org/2000/svg"
 width="860.000000pt" height="933.000000pt" viewBox="0 0 860.000000 933.000000"
 preserveAspectRatio="xMidYMid meet">

<g transform="translate(0.000000,933.000000) scale(0.100000,-0.100000)"
fill="#FFD700" stroke="none">
<path d="M5309 8906 c-52 -18 -80 -43 -151 -132 -37 -45 -84 -91 -112 -109
-49 -30 -51 -30 -190 -31 -205 -1 -222 -9 -402 -191 -159 -162 -232 -191 -321
-130 -33 22 -53 61 -53 101 0 12 11 48 25 80 13 33 23 62 21 64 -8 7 -123 -57
-181 -101 -143 -108 -193 -257 -150 -452 10 -44 17 -87 17 -95 0 -8 -15 -55
-32 -105 -57 -158 -41 -306 47 -444 33 -51 35 -58 24 -86 -123 -308 -162 -630
-119 -968 10 -80 9 -95 -12 -175 l-23 -87 76 -70 c61 -57 84 -87 121 -160 52
-101 123 -200 233 -321 l73 -82 -238 -7 c-419 -14 -953 17 -1300 76 -211 35
-482 108 -540 145 -12 8 -22 25 -22 37 0 65 -159 324 -272 443 -96 101 -136
118 -258 111 -52 -3 -123 -14 -157 -25 l-63 -20 0 119 c0 465 -156 924 -352
1039 -47 28 -60 31 -113 27 -113 -8 -221 -83 -275 -189 -25 -50 -30 -73 -30
-130 0 -59 8 -91 56 -221 31 -84 77 -210 103 -282 l46 -130 -1 -145 c-1 -174
-6 -190 -67 -190 -97 0 -208 -89 -272 -218 -49 -97 -55 -152 -25 -251 12 -41
24 -79 26 -86 3 -6 -14 -24 -36 -40 -23 -16 -53 -49 -68 -74 -26 -44 -27 -51
-26 -182 l1 -137 45 -84 c79 -148 159 -260 252 -354 128 -127 246 -185 441
-214 52 -8 130 -32 225 -70 247 -99 297 -113 546 -149 634 -93 1194 -54 1638
113 37 14 69 26 71 26 1 0 5 -156 8 -347 8 -416 19 -634 53 -1008 27 -308 38
-405 59 -540 83 -523 118 -775 160 -1165 l26 -235 39 -40 c22 -21 42 -36 46
-32 11 10 -17 297 -67 694 -12 90 -19 167 -17 172 1 5 41 -9 88 -31 47 -22
153 -66 235 -97 l150 -57 3 -446 2 -446 68 -20 c259 -77 727 -120 1163 -109
248 7 331 22 698 128 212 62 651 229 651 249 0 3 -16 32 -36 65 -20 32 -56 99
-80 147 -37 74 -41 88 -27 88 10 0 72 -7 138 -15 66 -8 208 -15 317 -15 l196
0 41 47 c23 25 54 69 70 97 36 62 81 194 80 233 0 15 -26 98 -58 183 -32 85
-57 158 -54 163 2 4 15 7 29 7 29 0 62 48 206 300 174 304 299 557 485 978
l87 197 0 95 c0 115 -16 159 -106 293 -402 599 -861 1039 -1465 1405 -150 91
-466 251 -633 322 -58 24 -109 47 -114 51 -5 5 6 25 25 46 19 21 65 80 104
131 56 74 75 92 96 92 36 0 125 28 183 57 64 32 145 115 176 178 22 44 25 63
25 165 0 111 -1 117 -33 174 l-32 60 65 132 c303 615 284 1099 -56 1476 -48
52 -121 108 -142 108 -31 0 -120 101 -166 188 -75 140 -184 222 -296 222 -86
0 -201 48 -330 138 -126 88 -202 108 -286 78z m142 -92 c17 -8 73 -44 124 -78
117 -79 203 -114 314 -128 138 -17 197 -57 287 -194 79 -120 140 -192 182
-213 43 -23 146 -126 189 -191 110 -164 162 -367 149 -580 -9 -155 -59 -370
-121 -523 -5 -13 -15 5 -36 64 -55 158 -150 292 -289 412 l-43 37 66 69 c150
155 157 296 23 419 -98 89 -211 97 -366 24 -64 -29 -161 -40 -213 -23 -44 15
-107 82 -142 150 -53 106 -125 161 -208 161 -59 0 -98 -14 -185 -67 -39 -25
-107 -60 -149 -79 l-78 -33 -45 26 c-93 55 -102 58 -191 58 -84 0 -88 -1 -142
-38 -35 -24 -84 -75 -132 -137 -125 -161 -217 -216 -347 -207 -120 8 -180 73
-212 229 -35 171 -16 278 73 396 31 40 39 40 46 -2 10 -52 40 -93 92 -126 38
-24 58 -30 103 -30 94 0 163 41 304 182 65 65 137 128 160 140 54 29 161 30
228 4 34 -13 65 -17 111 -14 78 5 120 32 162 105 100 173 195 235 286 187z
m-18 -759 c40 -19 112 -86 165 -153 53 -67 76 -70 302 -37 230 33 267 30 321
-24 55 -55 73 -138 47 -225 -15 -49 -87 -123 -146 -150 -23 -11 -42 -22 -42
-26 0 -3 38 -39 84 -79 107 -92 223 -213 270 -282 44 -65 76 -163 76 -231 l0
-51 -31 59 c-101 190 -320 454 -376 454 -18 0 -25 9 107 -150 109 -131 152
-189 202 -276 37 -63 82 -173 74 -181 -4 -4 -88 107 -190 249 -60 85 -128 146
-173 154 -18 4 -37 4 -40 0 -8 -8 61 -97 223 -285 78 -92 144 -170 146 -176 2
-5 -16 -12 -40 -15 l-42 -5 35 -50 c20 -27 51 -79 68 -115 75 -153 16 -324
-138 -403 -55 -28 -145 -47 -173 -36 -14 5 -28 6 -32 2 -4 -4 -50 -67 -104
-139 -125 -171 -311 -351 -455 -439 -34 -21 -60 -40 -57 -42 7 -7 129 25 180
47 43 18 47 18 35 3 -13 -17 -13 -17 14 0 15 10 27 15 27 12 0 -22 -99 -145
-179 -225 -151 -149 -303 -220 -473 -220 -118 0 -296 51 -378 108 l-35 24 35
-6 c113 -20 283 -37 335 -33 60 5 115 23 115 39 0 4 -44 8 -97 8 -109 0 -254
21 -354 50 -198 59 -330 141 -498 309 -135 136 -227 253 -281 362 -29 58 -55
91 -100 130 -66 58 -68 67 -44 144 13 43 14 65 3 162 -8 74 -10 185 -6 335 10
328 43 488 143 684 64 125 162 282 188 300 11 8 64 43 116 76 88 57 187 148
298 271 90 101 211 113 318 32 47 -36 154 -35 245 1 165 66 236 75 312 39z
m-1448 -335 c41 -28 75 -53 75 -57 0 -16 -146 -251 -155 -249 -5 1 -23 29 -40
60 -43 84 -46 167 -10 241 14 30 33 55 41 55 8 0 48 -23 89 -50z m-3031 -474
c96 -56 179 -211 240 -447 40 -155 57 -291 63 -492 l6 -189 -41 -41 c-30 -31
-49 -63 -67 -117 -14 -41 -24 -81 -23 -89 2 -8 34 20 75 66 124 137 200 176
368 189 76 6 82 5 122 -23 55 -37 121 -115 200 -235 82 -124 114 -195 120
-267 5 -53 -9 -146 -26 -179 -5 -8 -35 47 -75 135 -64 137 -69 155 -77 242 -5
52 -12 98 -17 103 -4 4 -23 -11 -41 -35 -31 -40 -33 -45 -28 -110 3 -51 -1
-92 -19 -160 -27 -104 -28 -117 -14 -117 10 0 26 17 68 69 l19 24 57 -119 c83
-173 100 -230 100 -344 0 -153 -50 -257 -189 -395 -160 -160 -232 -192 -447
-201 -230 -10 -379 15 -518 86 -103 52 -255 231 -363 428 l-46 82 -3 124 c-3
131 6 161 52 186 18 10 22 7 35 -22 16 -41 61 -198 71 -252 6 -35 8 -37 19
-22 23 30 35 130 24 195 -5 33 -32 124 -59 201 -28 78 -50 158 -50 178 0 40
45 143 85 196 31 41 112 86 154 86 30 0 31 -2 31 -43 0 -35 6 -49 29 -71 l30
-29 5 24 c11 47 46 326 52 409 8 108 -8 172 -117 473 -44 122 -83 243 -86 268
-12 98 48 193 151 240 55 25 81 24 130 -5z m5161 -1742 c70 -31 129 -62 131
-69 7 -18 -53 -181 -103 -278 -141 -274 -354 -448 -672 -551 -61 -20 -146 -42
-191 -50 -88 -15 -107 -26 -126 -72 -28 -68 -89 -653 -114 -1093 -5 -102 -10
-352 -10 -556 l0 -371 26 -52 c45 -90 62 -96 254 -100 344 -7 678 44 1053 162
l77 24 0 -152 c0 -83 7 -214 15 -291 8 -77 15 -150 15 -162 0 -19 -16 -27
-139 -67 -395 -129 -688 -183 -1056 -193 -355 -10 -674 36 -995 143 -115 38
-362 141 -425 177 -39 22 -40 24 -51 102 -7 44 -33 221 -58 394 -26 173 -45
316 -43 318 2 2 54 -30 115 -71 137 -90 230 -140 325 -172 82 -28 165 -39 186
-26 11 8 14 102 16 528 1 397 6 559 18 689 32 321 73 589 128 832 l31 132 -52
52 c-148 148 -196 311 -142 486 l22 72 94 -45 c76 -36 108 -58 168 -118 80
-81 132 -111 271 -158 117 -40 292 -50 397 -24 147 37 305 141 427 282 55 64
160 219 205 303 32 59 11 61 203 -25z m-3879 -14 c42 -16 160 -47 265 -69 371
-78 703 -104 1329 -104 l436 0 -24 -71 c-19 -53 -25 -93 -25 -161 -1 -139 42
-244 151 -373 l54 -64 -25 -117 c-58 -265 -95 -505 -124 -821 -14 -154 -18
-293 -18 -662 0 -258 -1 -468 -3 -468 -19 0 -145 51 -207 84 -72 38 -278 170
-332 214 -20 15 -23 34 -37 202 -30 348 -40 605 -40 1067 -1 255 -2 463 -4
463 -2 0 -24 -14 -49 -31 l-45 -32 -96 7 c-467 35 -867 192 -1137 448 l-85 80
0 77 c0 70 -7 152 -26 289 -7 56 -4 59 42 42z m-110 -270 c5 -139 3 -194 -10
-270 -35 -197 -105 -346 -223 -471 -74 -78 -188 -159 -225 -159 -74 0 -286 83
-258 100 8 5 31 10 51 10 162 1 441 228 543 443 55 117 66 196 45 337 -11 73
-11 77 22 170 l33 95 8 -40 c5 -22 11 -119 14 -215z m4859 -1701 c55 -17 104
-35 108 -39 5 -4 -7 -30 -26 -56 -114 -162 -269 -461 -372 -719 -67 -169 -67
-170 -55 -218 l12 -49 -40 -41 c-22 -23 -49 -57 -60 -75 l-19 -33 -5 26 c-9
45 11 352 32 495 22 147 75 386 115 520 14 47 33 128 42 181 l16 97 76 -29
c42 -16 121 -43 176 -60z m-236 -1238 c28 -39 73 -88 99 -111 95 -82 293 -160
408 -160 19 0 34 -3 34 -6 0 -4 -13 -21 -29 -40 -46 -52 -114 -173 -114 -202
0 -107 67 -191 179 -226 18 -5 23 0 33 35 7 22 11 42 9 42 -83 40 -99 53 -118
93 -20 41 -20 44 -4 76 28 54 90 141 123 172 28 27 31 28 38 10 4 -10 30 -82
59 -159 l51 -140 -15 -50 c-18 -61 -72 -169 -106 -210 l-24 -30 -174 1 c-170
2 -457 28 -489 45 -18 9 -81 173 -130 334 -22 75 -29 118 -29 182 0 146 42
296 106 380 14 18 29 33 33 33 5 0 31 -31 60 -69z"/>
<path d="M4748 7464 c-27 -30 -38 -71 -38 -140 l0 -64 -325 0 -325 0 0 -30 c0
-30 1 -30 54 -30 l53 0 6 -74 c7 -95 36 -163 73 -172 56 -14 83 30 98 159 l10
87 193 0 c152 0 193 -3 193 -13 0 -46 -144 -291 -237 -405 -29 -35 -53 -68
-53 -73 0 -5 37 -70 83 -145 l82 -136 37 42 37 42 -59 89 c-33 48 -60 90 -60
92 0 2 25 41 55 86 66 99 114 196 158 322 l33 94 190 3 191 2 6 -77 c9 -122
43 -180 99 -171 36 5 57 47 69 138 6 47 13 91 15 98 2 8 30 12 94 12 l90 0 0
30 0 30 -397 2 -398 3 -5 109 c-5 102 -6 107 -22 90z"/>
<path d="M5537 6898 c-48 -39 -86 -73 -83 -75 9 -10 87 19 114 42 27 23 68 92
60 100 -2 2 -43 -28 -91 -67z"/>
<path d="M6087 6913 c-19 -18 0 -47 66 -105 100 -88 146 -122 154 -114 12 12
-17 83 -52 123 -56 66 -147 118 -168 96z"/>
<path d="M6080 6715 c0 -12 44 -92 67 -122 13 -18 31 -33 40 -33 13 0 15 9 10
47 -4 38 -12 54 -41 80 -31 28 -76 45 -76 28z"/>
<path d="M4250 6361 c-52 -3 -102 -10 -110 -15 -52 -32 -117 -88 -149 -131
-36 -48 -81 -126 -81 -141 0 -4 40 31 88 78 48 47 110 98 137 114 l50 29 320
3 c256 2 358 -1 508 -16 l188 -19 37 -35 c86 -82 222 -173 222 -148 0 16 -41
77 -108 161 -69 88 -40 79 -327 104 -191 17 -630 26 -775 16z"/>
<path d="M4430 6200 c-13 -8 -13 -11 1 -25 13 -13 46 -16 205 -16 l189 0 3 25
3 26 -193 0 c-106 0 -200 -5 -208 -10z"/>
</g>
</svg>
