<?xml version="1.0" standalone="no"?>
<!DOCTYPE svg PUBLIC "-//W3C//DTD SVG 20010904//EN"
 "http://www.w3.org/TR/2001/REC-SVG-20010904/DTD/svg10.dtd">
<svg version="1.0" xmlns="http://www.w3.org/2000/svg"
 width="900.000000pt" height="520.000000pt" viewBox="0 0 900.000000 520.000000"
 preserveAspectRatio="xMidYMid meet">

<g transform="translate(0.000000,520.000000) scale(0.100000,-0.100000)"
fill="#FFD700" stroke="none">
<path d="M5980 4986 c-321 -184 -598 -356 -1043 -648 -131 -86 -132 -87 -222
-98 -136 -17 -190 -29 -265 -60 -110 -45 -174 -93 -313 -233 -115 -115 -139
-135 -186 -150 -73 -23 -152 -22 -182 2 -36 29 -34 122 5 219 16 40 26 75 23
78 -3 4 -45 -13 -93 -36 -69 -33 -103 -58 -169 -123 -89 -89 -123 -147 -151
-256 -23 -93 -16 -240 15 -300 l23 -44 -23 -41 c-24 -43 -48 -152 -48 -228 -1
-76 44 -165 142 -281 l49 -58 -26 -58 c-27 -61 -82 -274 -90 -351 -2 -25 -10
-81 -17 -125 -25 -162 -12 -406 32 -607 7 -32 10 -60 7 -64 -4 -3 -64 -14
-135 -25 -382 -58 -453 -61 -572 -24 -99 31 -153 72 -208 153 -54 80 -67 127
-67 228 0 68 5 91 28 137 31 65 82 119 140 150 32 17 59 21 126 21 76 1 91 -3
139 -29 74 -41 94 -70 98 -147 l4 -63 -20 55 c-33 91 -104 140 -205 140 -90 0
-164 -45 -214 -128 -24 -42 -27 -57 -27 -137 0 -82 3 -97 32 -155 40 -82 93
-136 163 -169 75 -36 206 -36 293 -2 122 48 237 178 278 313 25 83 23 212 -6
293 -70 198 -294 357 -504 357 -234 0 -459 -135 -565 -341 -55 -107 -76 -188
-76 -301 0 -143 37 -277 108 -390 56 -89 186 -210 279 -258 124 -64 182 -77
358 -75 129 1 183 7 385 43 129 23 251 44 270 47 36 5 36 4 107 -104 115 -174
250 -314 395 -408 50 -33 84 -63 98 -88 72 -127 242 -267 413 -340 74 -32 105
-39 204 -48 147 -14 251 -2 390 45 206 69 393 190 525 339 40 45 135 145 210
222 138 142 215 231 264 309 27 43 28 44 94 48 82 6 173 46 254 111 65 52 81
72 129 162 31 58 32 64 32 185 0 125 0 126 -37 200 -20 41 -55 97 -77 123
l-40 48 51 82 c162 261 278 622 265 827 -6 93 -39 234 -68 292 -11 21 -19 43
-19 50 0 20 -58 125 -111 203 -48 69 -48 71 -73 230 -72 454 -114 695 -155
895 -88 426 -116 550 -126 550 -6 0 -139 -74 -295 -164z m-238 -337 c81 -17
317 -88 354 -107 18 -9 76 -39 128 -66 53 -27 100 -54 105 -60 6 -9 71 -354
71 -381 0 -4 -19 8 -42 25 -210 158 -403 251 -644 310 -146 36 -330 70 -380
70 -43 0 -43 13 -1 38 17 10 90 56 161 101 139 87 150 90 248 70z m-397 -522
c210 -44 324 -82 512 -172 292 -140 517 -322 655 -531 120 -182 165 -308 175
-490 6 -123 -4 -197 -47 -334 -28 -91 -121 -310 -131 -310 -3 0 -18 22 -32 50
-42 81 -137 198 -251 309 -59 57 -106 104 -104 105 123 55 198 119 242 207 69
140 -4 299 -163 354 -35 12 -92 15 -253 15 -164 0 -215 3 -237 15 -27 13 -93
95 -168 205 -52 77 -134 147 -180 154 -62 11 -111 -7 -308 -112 -243 -129
-264 -130 -435 -19 -51 34 -73 42 -110 42 -70 0 -129 -29 -226 -111 -231 -195
-309 -249 -413 -285 -104 -36 -180 -18 -270 66 -69 64 -94 126 -99 246 -2 53
1 121 8 152 14 71 59 162 105 213 l36 39 -6 -41 c-23 -155 112 -248 290 -200
95 25 137 55 270 190 120 122 137 136 225 178 151 74 255 88 610 83 152 -3
260 -9 305 -18z m-705 -642 c114 -76 153 -89 235 -83 49 4 93 19 201 69 117
53 150 64 206 67 94 6 136 -17 245 -132 141 -148 140 -148 296 -157 187 -10
223 -17 304 -55 82 -39 116 -81 116 -145 0 -74 -84 -161 -218 -227 -35 -18
-66 -36 -69 -41 -8 -12 13 -34 64 -71 58 -41 187 -165 252 -243 28 -34 82
-109 120 -166 l69 -104 -18 -35 c-29 -56 -77 -102 -106 -102 -33 0 -77 -17
-77 -29 0 -6 32 -26 70 -47 102 -53 173 -133 201 -225 39 -130 10 -239 -90
-332 -62 -58 -128 -90 -256 -122 -53 -14 -101 -27 -106 -30 -5 -4 -41 -50 -81
-103 -108 -146 -280 -312 -427 -412 -184 -126 -246 -174 -246 -190 0 -20 74
-25 133 -10 25 6 46 9 48 7 6 -5 -124 -88 -185 -117 -222 -107 -459 -130 -666
-63 -76 25 -211 120 -194 137 3 3 22 1 44 -5 60 -14 306 -23 335 -11 23 9 21
10 -25 17 -113 16 -255 60 -420 132 -181 78 -322 172 -459 307 -78 76 -223
263 -212 273 10 10 404 61 461 60 105 -1 179 68 179 168 0 119 -121 206 -226
162 -40 -17 -410 -76 -497 -80 -64 -2 -59 -11 -91 172 -24 138 -26 295 -5 458
41 316 99 510 237 791 60 123 60 123 114 147 107 47 256 156 384 280 123 120
149 140 199 155 39 12 57 4 161 -65z m-1092 -302 c26 -21 68 -47 92 -57 25
-11 46 -20 47 -21 1 0 -22 -48 -51 -105 -29 -58 -56 -116 -60 -130 l-7 -25
-28 33 c-48 56 -81 135 -81 195 0 47 25 147 36 147 3 0 26 -17 52 -37z m-1023
-853 c-3 -5 -12 -10 -18 -10 -7 0 -6 4 3 10 19 12 23 12 15 0z m-75 -44 c0 -2
-8 -10 -17 -17 -16 -13 -17 -12 -4 4 13 16 21 21 21 13z m-80 -90 c0 -2 -8
-10 -17 -17 -16 -13 -17 -12 -4 4 13 16 21 21 21 13z m490 -192 c0 -2 -9 0
-20 6 -11 6 -20 13 -20 16 0 2 9 0 20 -6 11 -6 20 -13 20 -16z m-233 -161 c-3
-10 -5 -2 -5 17 0 19 2 27 5 18 2 -10 2 -26 0 -35z m167 -71 c3 -5 -1 -9 -9
-9 -8 0 -12 4 -9 9 3 4 7 8 9 8 2 0 6 -4 9 -8z m1421 -256 c14 -10 19 -25 18
-56 -1 -24 -6 -47 -11 -52 -4 -4 -132 -26 -283 -48 -151 -22 -288 -43 -305
-46 -30 -5 -31 -4 -37 33 -4 21 -9 52 -13 69 l-6 31 59 7 c52 6 344 46 483 66
30 4 60 8 66 9 5 0 19 -5 29 -13z"/>
<path d="M4105 3139 c-78 -32 -159 -99 -140 -117 2 -3 31 7 62 21 53 24 108
37 166 41 24 2 24 15 1 52 -19 29 -24 29 -89 3z"/>
<path d="M5248 3055 c-27 -20 -48 -37 -48 -39 0 -2 30 -21 67 -42 59 -35 121
-94 216 -208 51 -62 53 11 2 123 -23 50 -160 201 -181 201 -5 0 -30 -16 -56
-35z"/>
<path d="M3989 2789 c-39 -42 -52 -92 -48 -182 4 -64 8 -80 29 -102 32 -34 65
-29 101 15 55 68 62 222 14 274 -32 34 -61 33 -96 -5z"/>
<path d="M4593 2727 c-18 -12 -51 -53 -75 -91 -89 -141 -213 -323 -253 -371
-49 -58 -65 -86 -65 -113 0 -27 114 -200 153 -234 18 -15 43 -28 55 -28 29 0
92 29 92 42 0 5 -15 28 -34 51 -50 62 -96 150 -96 183 0 16 15 54 34 85 112
186 246 473 229 490 -5 5 -22 -1 -40 -14z"/>
<path d="M5152 2695 c-36 -40 -47 -83 -47 -175 0 -128 76 -173 139 -83 25 36
30 54 34 122 5 92 -1 124 -28 151 -30 30 -64 25 -98 -15z"/>
<path d="M5943 2553 c-7 -2 -13 -15 -13 -27 0 -22 40 -67 232 -264 141 -144
173 -163 148 -85 -22 66 -89 154 -206 271 -106 104 -128 119 -161 105z"/>
<path d="M5880 2344 c0 -8 13 -32 28 -52 16 -20 48 -63 71 -94 53 -70 138
-151 154 -145 44 14 -9 105 -132 225 -82 78 -121 100 -121 66z"/>
<path d="M5845 2177 c-27 -20 -14 -53 44 -114 69 -73 125 -71 107 2 -8 32 -61
92 -97 111 -34 17 -31 17 -54 1z"/>
<path d="M5776 2004 c-15 -14 -15 -18 1 -46 21 -34 48 -52 69 -44 29 11 6 73
-36 96 -14 7 -23 6 -34 -6z"/>
<path d="M4234 1799 c-35 -10 -69 -43 -59 -58 4 -7 34 -9 83 -5 108 7 124 12
120 32 -7 36 -76 51 -144 31z"/>
<path d="M4098 1199 c-25 -14 -22 -33 12 -72 64 -74 222 -112 298 -73 29 15
51 51 38 63 -8 9 -87 22 -131 23 -22 0 -67 13 -101 29 -81 38 -96 42 -116 30z"/>
</g>
</svg>
