<?xml version="1.0" standalone="no"?>
<!DOCTYPE svg PUBLIC "-//W3C//DTD SVG 20010904//EN"
 "http://www.w3.org/TR/2001/REC-SVG-20010904/DTD/svg10.dtd">
<svg version="1.0" xmlns="http://www.w3.org/2000/svg"
 width="900.000000pt" height="512.000000pt" viewBox="0 0 900.000000 512.000000"
 preserveAspectRatio="xMidYMid meet">

<g transform="translate(0.000000,512.000000) scale(0.100000,-0.100000)"
fill="#FFD700" stroke="none">
<path d="M4697 5051 c-87 -37 -116 -58 -260 -184 -65 -58 -144 -117 -175 -133
-57 -29 -58 -29 -242 -29 -169 0 -190 -2 -241 -23 -84 -34 -139 -74 -204 -149
-109 -127 -245 -254 -293 -276 -37 -17 -66 -22 -135 -22 -81 0 -90 2 -108 24
-39 48 -18 222 39 308 47 73 -138 -7 -263 -113 -168 -144 -228 -277 -228 -514
-1 -87 3 -113 21 -153 29 -63 28 -77 -8 -151 -88 -185 -53 -356 113 -548 l60
-70 -37 -112 c-76 -233 -115 -462 -123 -731 -7 -262 10 -383 94 -660 65 -211
278 -535 478 -723 81 -77 186 -162 200 -162 17 0 87 -54 94 -73 5 -12 24 -43
43 -68 202 -282 586 -457 898 -410 349 53 681 237 904 501 21 25 107 115 190
200 139 142 196 208 312 362 l42 55 77 12 c43 6 115 27 163 48 76 32 98 47
170 120 92 92 122 145 148 262 35 156 1 300 -106 449 -33 46 -60 88 -60 94 0
6 24 50 54 97 85 135 198 391 245 553 73 253 75 471 6 671 -30 84 -117 232
-185 312 -71 85 -90 130 -101 242 -6 70 -18 117 -43 178 -39 96 -112 211 -158
250 -81 68 -245 130 -468 175 -58 12 -119 28 -136 36 -17 8 -69 52 -116 97
-122 117 -220 192 -318 240 -80 39 -91 42 -180 44 -85 2 -102 0 -163 -26z
m288 -120 c117 -25 162 -51 292 -174 119 -113 205 -167 337 -211 43 -14 84
-26 90 -26 7 0 56 -17 109 -39 98 -39 183 -99 227 -161 19 -26 100 -220 100
-238 0 -28 95 -254 171 -407 114 -229 131 -292 132 -480 1 -154 -13 -236 -64
-383 -29 -83 -129 -322 -134 -322 -2 0 -13 20 -25 45 -49 101 -213 301 -339
413 -47 41 -87 78 -88 81 -1 3 31 21 70 40 84 40 167 119 211 200 80 148 19
319 -143 400 -78 39 -102 42 -357 42 -167 0 -233 4 -257 14 -34 14 -89 78
-167 194 -60 90 -145 182 -193 209 -47 26 -106 29 -165 8 -22 -8 -135 -65
-251 -126 -117 -62 -229 -114 -249 -117 -51 -7 -148 31 -246 95 -69 46 -85 52
-131 52 -95 0 -174 -42 -319 -172 -226 -203 -416 -311 -545 -309 -74 1 -144
37 -213 109 -84 88 -102 144 -103 312 0 117 3 143 22 193 36 92 68 149 111
197 l40 45 -5 -70 c-4 -59 -1 -77 19 -114 13 -25 40 -58 61 -75 34 -27 46 -30
127 -34 102 -5 194 17 270 66 25 16 116 103 203 194 134 140 168 171 224 198
60 30 71 32 132 27 37 -3 93 -17 128 -32 35 -14 91 -28 126 -32 97 -9 132 11
299 174 161 156 201 188 267 214 59 23 114 23 226 0z m-930 -1036 c129 -86
175 -105 254 -105 78 0 136 18 283 88 148 71 225 90 293 73 78 -20 111 -45
275 -216 102 -106 123 -114 323 -125 218 -12 296 -32 384 -98 35 -26 73 -95
73 -131 0 -34 -27 -85 -72 -136 -38 -43 -163 -125 -235 -154 -50 -20 -42 -44
30 -97 164 -121 305 -275 444 -486 l86 -129 -47 -70 c-46 -69 -73 -89 -121
-89 -37 0 -75 -18 -70 -32 3 -7 39 -30 79 -51 100 -51 178 -127 219 -214 29
-63 32 -76 32 -168 0 -124 -20 -172 -110 -260 -82 -81 -205 -138 -363 -167
-70 -13 -66 -9 -174 -156 -33 -46 -124 -148 -202 -226 -118 -119 -167 -160
-295 -247 -227 -153 -276 -191 -276 -214 0 -17 8 -20 60 -23 38 -2 75 3 103
13 24 10 46 15 48 12 9 -9 -145 -108 -231 -148 -208 -98 -407 -133 -595 -104
-130 20 -191 37 -255 74 -54 31 -153 116 -145 124 3 3 34 -2 70 -10 85 -19
376 -23 405 -6 18 11 15 12 -23 13 -160 1 -579 157 -792 294 -78 51 -249 194
-315 265 -26 28 -78 92 -116 143 -265 355 -359 781 -284 1293 26 179 77 402
119 522 31 88 121 289 179 403 39 75 48 86 82 98 103 34 322 192 455 327 94
95 187 171 230 188 49 18 83 6 195 -68z m-1303 -323 c7 -17 106 -88 148 -106
25 -11 46 -21 48 -22 1 0 -27 -61 -63 -135 -36 -74 -65 -140 -65 -146 0 -29
-23 -8 -70 62 -75 115 -87 207 -40 312 18 40 34 54 42 35z"/>
<path d="M3445 3487 c-97 -42 -201 -126 -175 -142 6 -4 16 -3 23 3 28 22 153
63 208 69 33 3 62 10 65 15 7 12 -44 78 -59 77 -7 0 -35 -10 -62 -22z"/>
<path d="M4565 3282 c-10 -7 -55 -107 -55 -122 0 -4 53 -10 118 -13 102 -4
130 -9 217 -41 97 -35 155 -45 155 -27 0 12 -89 93 -131 119 -51 31 -155 68
-214 76 -27 4 -57 9 -65 11 -8 3 -20 1 -25 -3z"/>
<path d="M3320 3094 c-54 -46 -71 -93 -73 -204 -2 -108 9 -138 66 -170 24 -13
29 -13 54 6 89 64 115 291 42 364 -37 37 -49 37 -89 4z"/>
<path d="M4014 3008 c-42 -33 -58 -53 -120 -153 -92 -147 -214 -325 -281 -408
-83 -103 -83 -111 9 -249 85 -130 125 -168 173 -168 41 0 105 28 105 47 0 7
-14 28 -31 47 -17 19 -53 72 -80 118 -58 97 -58 111 -2 202 56 91 232 440 254
503 30 89 25 101 -27 61z"/>
<path d="M4615 2804 c-98 -22 -245 -89 -245 -110 0 -11 19 -14 78 -14 98 0
236 -24 327 -57 38 -14 81 -28 94 -30 21 -5 22 -3 16 18 -4 13 -26 62 -49 109
l-41 85 -80 2 c-44 0 -89 -1 -100 -3z"/>
<path d="M5588 2799 c-39 -22 -21 -56 85 -167 57 -59 128 -134 158 -166 66
-72 165 -156 184 -156 11 0 11 8 -2 48 -35 104 -157 256 -312 390 -75 64 -84
68 -113 51z"/>
<path d="M5517 2573 c-15 -14 -4 -36 69 -132 97 -128 186 -221 212 -221 67 0
9 105 -137 248 -108 106 -129 121 -144 105z"/>
<path d="M5465 2357 c-12 -10 -16 -21 -12 -38 9 -33 88 -121 130 -143 108 -59
79 96 -32 171 -39 26 -60 29 -86 10z"/>
<path d="M5387 2163 c-15 -14 -5 -50 23 -80 58 -64 110 -33 64 37 -30 44 -68
63 -87 43z"/>
<path d="M3178 1863 c-113 -116 -129 -138 -121 -160 5 -10 21 -37 36 -58 15
-22 46 -68 67 -103 37 -58 60 -72 60 -36 0 25 20 16 99 -45 109 -85 119 -93
191 -137 235 -145 482 -171 756 -79 108 36 304 135 381 192 17 13 34 20 36 16
2 -5 15 -45 28 -91 36 -124 66 -102 133 100 44 133 43 149 -12 210 -56 62
-257 208 -287 208 -18 0 -18 -3 0 -65 12 -39 13 -51 3 -61 -16 -14 -196 -42
-321 -50 -50 -3 -108 -6 -129 -8 -64 -5 -316 13 -406 29 -48 9 -158 34 -244
57 l-157 41 -3 56 c-2 41 -7 57 -19 59 -9 2 -48 -31 -91 -75z m312 -181 c256
-69 335 -81 560 -86 173 -4 333 11 479 46 l94 22 25 -29 24 -29 -22 -18 c-12
-10 -81 -51 -153 -92 -235 -131 -355 -174 -518 -183 -134 -7 -228 12 -358 73
-105 49 -367 217 -381 245 -15 27 -12 54 8 71 34 31 59 29 242 -20z"/>
<path d="M3686 1064 c-57 -57 54 -117 244 -131 69 -6 81 0 94 44 5 16 -1 30
-21 52 -26 29 -35 32 -123 41 -135 14 -176 13 -194 -6z"/>
</g>
</svg>
